<svg xmlns="http://www.w3.org/2000/svg" width="48" height="48" viewBox="0 0 48 48" fill="none">
  <!-- Book base -->
  <path d="M8 8C8 5.79 9.79 4 12 4H36C38.21 4 40 5.79 40 8V40C40 42.21 38.21 44 36 44H12C9.79 44 8 42.21 8 40V8Z" fill="#1a1a2e"/>
  <!-- Book pages -->
  <path d="M12 6H34C35.1 6 36 6.9 36 8V38C36 39.1 35.1 40 34 40H12C10.9 40 10 39.1 10 38V8C10 6.9 10.9 6 12 6Z" fill="#16213e"/>
  <!-- Book spine accent -->
  <rect x="10" y="6" width="3" height="34" rx="1" fill="#7c3aed"/>
  <!-- Shield -->
  <path d="M24 13L17 16V23C17 28.55 19.84 33.74 24 36C28.16 33.74 31 28.55 31 23V16L24 13Z" fill="url(#shieldGrad)" stroke="#a78bfa" stroke-width="0.8"/>
  <!-- Lock icon inside shield -->
  <rect x="21.5" y="23" width="5" height="4" rx="1" fill="#e0d4ff"/>
  <path d="M22.5 23V21.5C22.5 20.67 23.17 20 24 20C24.83 20 25.5 20.67 25.5 21.5V23" stroke="#e0d4ff" stroke-width="1.2" stroke-linecap="round" fill="none"/>
  <!-- Keyhole dot -->
  <circle cx="24" cy="24.8" r="0.7" fill="#7c3aed"/>
  <defs>
    <linearGradient id="shieldGrad" x1="17" y1="13" x2="31" y2="36" gradientUnits="userSpaceOnUse">
      <stop stop-color="#7c3aed"/>
      <stop offset="1" stop-color="#4c1d95"/>
    </linearGradient>
  </defs>
</svg>